<svg id="visual" viewBox="0 0 900 600" width="900" height="600" xmlns="http://www.w3.org/2000/svg" xmlns:xlink="http://www.w3.org/1999/xlink" version="1.1"><rect x="0" y="0" width="900" height="600" fill="#132533"></rect><path d="M0 308L16.7 315.7C33.3 323.3 66.7 338.7 100 338.2C133.3 337.7 166.7 321.3 200 326.3C233.3 331.3 266.7 357.7 300 368.3C333.3 379 366.7 374 400 377.5C433.3 381 466.7 393 500 387.3C533.3 381.7 566.7 358.3 600 359.2C633.3 360 666.7 385 700 389C733.3 393 766.7 376 800 368.3C833.3 360.7 866.7 362.3 883.3 363.2L900 364L900 601L883.3 601C866.7 601 833.3 601 800 601C766.7 601 733.3 601 700 601C666.7 601 633.3 601 600 601C566.7 601 533.3 601 500 601C466.7 601 433.3 601 400 601C366.7 601 333.3 601 300 601C266.7 601 233.3 601 200 601C166.7 601 133.3 601 100 601C66.7 601 33.3 601 16.7 601L0 601Z" fill="#c62368"></path><path d="M0 405L16.7 408.2C33.3 411.3 66.7 417.7 100 421.2C133.3 424.7 166.7 425.3 200 419C233.3 412.7 266.7 399.3 300 401.3C333.3 403.3 366.7 420.7 400 429.3C433.3 438 466.7 438 500 441.8C533.3 445.7 566.7 453.3 600 457C633.3 460.7 666.7 460.3 700 456.2C733.3 452 766.7 444 800 437.5C833.3 431 866.7 426 883.3 423.5L900 421L900 601L883.3 601C866.7 601 833.3 601 800 601C766.7 601 733.3 601 700 601C666.7 601 633.3 601 600 601C566.7 601 533.3 601 500 601C466.7 601 433.3 601 400 601C366.7 601 333.3 601 300 601C266.7 601 233.3 601 200 601C166.7 601 133.3 601 100 601C66.7 601 33.3 601 16.7 601L0 601Z" fill="#e33953"></path><path d="M0 502L16.7 497.3C33.3 492.7 66.7 483.3 100 484.2C133.3 485 166.7 496 200 499.5C233.3 503 266.7 499 300 496.5C333.3 494 366.7 493 400 488C433.3 483 466.7 474 500 474.2C533.3 474.3 566.7 483.7 600 486.3C633.3 489 666.7 485 700 474.7C733.3 464.3 766.7 447.7 800 440.2C833.3 432.7 866.7 434.3 883.3 435.2L900 436L900 601L883.3 601C866.7 601 833.3 601 800 601C766.7 601 733.3 601 700 601C666.7 601 633.3 601 600 601C566.7 601 533.3 601 500 601C466.7 601 433.3 601 400 601C366.7 601 333.3 601 300 601C266.7 601 233.3 601 200 601C166.7 601 133.3 601 100 601C66.7 601 33.3 601 16.7 601L0 601Z" fill="#f45b38"></path><path d="M0 546L16.7 544.7C33.3 543.3 66.7 540.7 100 541.7C133.3 542.7 166.7 547.3 200 550.8C233.3 554.3 266.7 556.7 300 548C333.3 539.3 366.7 519.7 400 516.3C433.3 513 466.7 526 500 530.3C533.3 534.7 566.7 530.3 600 534C633.3 537.7 666.7 549.3 700 550.5C733.3 551.7 766.7 542.3 800 542.3C833.3 542.3 866.7 551.7 883.3 556.3L900 561L900 601L883.3 601C866.7 601 833.3 601 800 601C766.7 601 733.3 601 700 601C666.7 601 633.3 601 600 601C566.7 601 533.3 601 500 601C466.7 601 433.3 601 400 601C366.7 601 333.3 601 300 601C266.7 601 233.3 601 200 601C166.7 601 133.3 601 100 601C66.7 601 33.3 601 16.7 601L0 601Z" fill="#f7800f"></path></svg>